# xmcd CD database file
#
# Track frame offsets:
#	150
#	14570
#	26715
#	40190
#	54410
#	67005
#	76930
#	88805
#	102045
#	115202
#	126670
#	139320
#	153647
#	164995
#	177482
#	188350
#	201065
#	210667
#	221597
#	233407
#	245787
#	256702
#
# Disc length: 3561 seconds
#
# Revision: 2
# Processed by: cddbd v1.4PL0 Copyright (c) Steve Scherf et al.
# Submitted via: CDex 1.40Beta9
#
DISCID=410de716
DTITLE=Loretta Lynn - Softly and Tenderly
DYEAR=1900
DGENRE=Gospel
TTITLE0=Softly and Tenderly
TTITLE1=In the Garden
TTITLE2=How Great Thou Art
TTITLE3=Just a Closer Walk with Thee
TTITLE4=If You Miss Heaven (You'll Miss It All)
TTITLE5=Harp with Golden Strings
TTITLE6=The Old Rugged Cross
TTITLE7=Put Your Hand in the Hand
TTITLE8=Peace in the Valley
TTITLE9=I Believe
TTITLE10=Where No One Stands Alone
TTITLE11=When They Ring Those Golden Bells
TTITLE12=He's Got the Whole World in His Hands
TTITLE13=A Satisfied Mind
TTITLE14=Just a Little Talk with Jesus
TTITLE15=Where I Learned to Pray
TTITLE16=Old Camp Meetin' Time
TTITLE17=Everbody Wants to Go to Heaven
TTITLE18=When I Hear My Children Pray
TTITLE19=I'd Rather Have Jesus
TTITLE20=In the Sweet Bye and Bye
TTITLE21=If I Could Hear My Mother Pray
EXTD=ID3G: 38
EXTT0=Loretta Lynn
EXTT1=Loretta Lynn
EXTT2=Loretta Lynn
EXTT3=Loretta Lynn
EXTT4=Loretta Lynn
EXTT5=Loretta Lynn
EXTT6=Loretta Lynn
EXTT7=Loretta Lynn
EXTT8=Loretta Lynn
EXTT9=Loretta Lynn
EXTT10=Loretta Lynn
EXTT11=Loretta Lynn
EXTT12=Loretta Lynn
EXTT13=Loretta Lynn
EXTT14=Loretta Lynn
EXTT15=Loretta Lynn
EXTT16=Loretta Lynn
EXTT17=Loretta Lynn
EXTT18=Loretta Lynn
EXTT19=Loretta Lynn
EXTT20=Loretta Lynn
EXTT21=Loretta Lynn
PLAYORDER=
